<?xml version="1.0" encoding="utf-8"?>
<!-- Generator: Adobe Illustrator 16.0.0, SVG Export Plug-In . SVG Version: 6.00 Build 0)  -->
<!DOCTYPE svg PUBLIC "-//W3C//DTD SVG 1.1//EN" "http://www.w3.org/Graphics/SVG/1.1/DTD/svg11.dtd">
<svg version="1.1" id="Layer_1" xmlns="http://www.w3.org/2000/svg" xmlns:xlink="http://www.w3.org/1999/xlink" x="0px" y="0px"
	 width="612px" height="792px" viewBox="0 0 612 792" enable-background="new 0 0 612 792" xml:space="preserve">
<path d="M76.163-4.782H7.715c-3.708,0-6.725,3.017-6.725,6.724v68.449c0,3.708,3.017,6.725,6.725,6.725h68.448
	c3.708,0,6.725-3.017,6.725-6.725V1.942C82.888-1.765,79.872-4.782,76.163-4.782z M62.649,24.657
	c-5.876-3.531-11.022-5.297-15.436-5.297c-4.415,0-7.945,1.518-10.594,4.552c-2.648,3.035-3.973,7.117-3.973,12.249
	c0,4.855,1.393,8.738,4.18,11.648c2.786,2.911,6.51,4.366,11.173,4.366c4.083,0,8.966-1.641,14.649-4.925v13.16
	c-6.373,2.124-11.684,3.187-15.932,3.187c-7.311,0-13.519-2.684-18.622-8.049c-5.104-5.366-7.656-11.911-7.656-19.636
	c0-7.863,2.6-14.519,7.801-19.967c5.2-5.448,11.525-8.173,18.974-8.173c4.801,0.001,9.946,1.215,15.436,3.643V24.657z"/>
</svg>
