<?xml version="1.0" encoding="utf-8"?>
<!-- Generator: Adobe Illustrator 16.0.0, SVG Export Plug-In . SVG Version: 6.00 Build 0)  -->
<!DOCTYPE svg PUBLIC "-//W3C//DTD SVG 1.1//EN" "http://www.w3.org/Graphics/SVG/1.1/DTD/svg11.dtd">
<svg version="1.1" id="Layer_1" xmlns="http://www.w3.org/2000/svg" xmlns:xlink="http://www.w3.org/1999/xlink" x="0px" y="0px"
	 width="612px" height="792px" viewBox="0 0 612 792" enable-background="new 0 0 612 792" xml:space="preserve">
<g>
	<path d="M60.68,55.555l6.687,7.712l-7.909,5.011l-6.096-7.355c-4.578,1.674-8.673,2.51-12.285,2.51
		c-8.025,0-14.608-2.669-19.751-8.008c-5.143-5.338-7.713-12.187-7.713-20.546c0-6.896,2.503-13.124,7.511-18.684
		c5.007-5.559,11.635-8.339,19.884-8.339c7.724,0,14.228,2.648,19.512,7.943c5.282,5.296,7.924,11.818,7.924,19.567
		C68.443,43.31,65.855,50.039,60.68,55.555z M45.7,51.97l-5.727-6.789l7.696-5.006l5.282,6.192
		c2.134-2.367,3.201-5.837,3.201-10.406c0-5.259-1.379-9.45-4.138-12.575c-2.759-3.125-6.429-4.688-11.008-4.688
		c-4.442,0-8.069,1.55-10.883,4.649s-4.221,7.102-4.221,12.007c0,4.987,1.35,9.086,4.05,12.296s6.118,4.815,10.25,4.815
		C41.746,52.466,43.578,52.301,45.7,51.97z"/>
</g>
</svg>
