<?xml version="1.0" encoding="utf-8"?>
<!-- Generator: Adobe Illustrator 16.0.0, SVG Export Plug-In . SVG Version: 6.00 Build 0)  -->
<!DOCTYPE svg PUBLIC "-//W3C//DTD SVG 1.1//EN" "http://www.w3.org/Graphics/SVG/1.1/DTD/svg11.dtd">
<svg version="1.1" id="Layer_1" xmlns="http://www.w3.org/2000/svg" xmlns:xlink="http://www.w3.org/1999/xlink" x="0px" y="0px"
	 width="612px" height="792px" viewBox="0 0 612 792" enable-background="new 0 0 612 792" xml:space="preserve">
<g>
	<path d="M57.083,13.442L49.8,21.429c-3.834-2.262-6.594-3.393-8.276-3.393c-1.297,0-2.414,0.49-3.352,1.469
		c-0.938,0.979-1.407,2.144-1.407,3.495c0,2.676,2.427,4.993,7.283,6.952c3.559,1.519,6.249,2.892,8.069,4.119
		c1.821,1.228,3.345,2.932,4.573,5.11c1.228,2.18,1.842,4.539,1.842,7.076c0,4.663-1.883,8.719-5.649,12.167
		c-3.766,3.448-8.214,5.173-13.346,5.173c-5.628,0-11.187-2.648-16.677-7.945l7.697-8.98c3.448,3.559,6.676,5.339,9.683,5.339
		c1.407,0,2.758-0.626,4.056-1.878c1.296-1.252,1.945-2.566,1.945-3.942c0-2.834-2.994-5.333-8.98-7.495
		c-3.421-1.248-5.849-2.417-7.283-3.507c-1.435-1.09-2.642-2.676-3.621-4.759c-0.98-2.083-1.469-4.214-1.469-6.394
		c0-4.827,1.573-8.745,4.717-11.752c3.146-3.007,7.256-4.511,12.332-4.511C47.952,7.773,53,9.663,57.083,13.442z"/>
</g>
</svg>
